<svg width="50" height="50" viewBox="0 0 50 50" fill="none" xmlns="http://www.w3.org/2000/svg">
<path d="M30.4332 40.3865L16.4562 26.6451C16.2903 26.4815 16.1731 26.3043 16.1045 26.1135C16.0348 25.9226 16 25.7181 16 25.5C16 25.2819 16.0348 25.0774 16.1045 24.8865C16.1731 24.6957 16.2903 24.5185 16.4562 24.3549L30.4332 10.5726C30.8203 10.1909 31.3041 10 31.8848 10C32.4654 10 32.9631 10.2045 33.3779 10.6135C33.7926 11.0224 34 11.4996 34 12.0449C34 12.5901 33.7926 13.0673 33.3779 13.4763L21.1843 25.5L33.3779 37.5237C33.765 37.9055 33.9585 38.3755 33.9585 38.9339C33.9585 39.4933 33.7512 39.9776 33.3364 40.3865C32.9217 40.7955 32.4378 41 31.8848 41C31.3318 41 30.8479 40.7955 30.4332 40.3865Z" fill="#BDBDD7"/>
</svg>
