<svg width="50" height="50" viewBox="0 0 50 50" fill="none" xmlns="http://www.w3.org/2000/svg">
<path d="M25.625 33.1853L25.5 33.3215L25.3625 33.1853C19.425 27.3134 15.5 23.4305 15.5 19.4932C15.5 16.7684 17.375 14.7248 19.875 14.7248C21.8 14.7248 23.675 16.0872 24.3375 17.9401H26.6625C27.325 16.0872 29.2 14.7248 31.125 14.7248C33.625 14.7248 35.5 16.7684 35.5 19.4932C35.5 23.4305 31.575 27.3134 25.625 33.1853ZM31.125 12C28.95 12 26.8625 13.1035 25.5 14.8338C24.1375 13.1035 22.05 12 19.875 12C16.025 12 13 15.2834 13 19.4932C13 24.6294 17.25 28.8392 23.6875 35.2016L25.5 37L27.3125 35.2016C33.75 28.8392 38 24.6294 38 19.4932C38 15.2834 34.975 12 31.125 12Z" fill="white"/>
</svg>
