<svg width="50" height="50" viewBox="0 0 50 50" fill="none" xmlns="http://www.w3.org/2000/svg">
<path d="M15 15H17.2222L17.6667 17.2222M19.4444 26.1111H30.5556L35 17.2222H17.6667M19.4444 26.1111L17.6667 17.2222M19.4444 26.1111L16.8968 28.6588C16.1968 29.3587 16.6926 30.5556 17.6825 30.5556H30.5556M30.5556 30.5556C29.3283 30.5556 28.3333 31.5505 28.3333 32.7778C28.3333 34.0051 29.3283 35 30.5556 35C31.7829 35 32.7778 34.0051 32.7778 32.7778C32.7778 31.5505 31.7829 30.5556 30.5556 30.5556ZM21.6667 32.7778C21.6667 34.0051 20.6717 35 19.4444 35C18.2171 35 17.2222 34.0051 17.2222 32.7778C17.2222 31.5505 18.2171 30.5556 19.4444 30.5556C20.6717 30.5556 21.6667 31.5505 21.6667 32.7778Z" stroke="white" stroke-width="2" stroke-linecap="round" stroke-linejoin="round"/>
</svg>
